#!OML:ASF E:\emotionWalksFemale\Project 1\Capture day 1\Session 1\Female1.ASF
:FULLY-SPECIFIED
:DEGREES
1447
root 9.95256 15.5563 -30.1349 179.42 -10.053 182.3
lowerback 6.07071 -1.97522 4.75781
upperback -2.93177 -2.2961 5.33713
thorax -6.44829 -1.36791 3.21773
lowerneck -9.77396 0.41534 3.92933
upperneck 9.46196 0.654023 -6.84965
head 4.46675 0.00643044 -2.71876
rclavicle -9.0447e-015 2.22639e-014
rhumerus -37.6841 2.29539 -71.8475
rradius 40.3983
rwrist 11.2246
rhand -5.04209 -53.2325
rfingers 7.12502
rthumb -159.247 -622.143
lclavicle -9.0447e-015 2.22639e-014
lhumerus -39.8148 -0.91644 87.0898
lradius 67.8043
lwrist -3.80612
lhand -3.54995 -32.496
lfingers 7.12502
lthumb 22.1861 -3.74921
rfemur -0.789168 13.5282 30.3874
rtibia 17.0083
rfoot -15.3258 -34.638
rtoes 23.8628
lfemur -16.8121 7.01652 -10.1456
ltibia 68.1703
lfoot -10.801 7.18704
ltoes -13.7369
1448
root 9.96495 15.5462 -30.1628 179.17 -9.99116 182.29
lowerback 6.47113 -1.90562 4.84455
upperback -2.77291 -2.16932 5.35834
thorax -6.51466 -1.30729 3.19023
lowerneck -10.1856 0.324525 3.78561
upperneck 9.50682 0.542075 -6.79219
head 4.54265 -0.0559455 -2.68677
rclavicle 2.00773e-014 3.33958e-014
rhumerus -37.3499 1.96625 -71.5968
rradius 40.3246
rwrist 10.8843
rhand -5.32696 -53.3277
rfingers 7.12502
rthumb -159.521 -622.268
lclavicle 2.00773e-014 3.33958e-014
lhumerus -39.2979 -1.45601 87.2612
lradius 68.634
lwrist -3.43675
lhand -3.83413 -32.767
lfingers 7.12502
lthumb 21.9132 -3.98801
rfemur -0.500302 13.2829 30.5253
rtibia 17.1966
rfoot -15.5536 -34.4861
rtoes 23.6741
lfemur -17.3136 7.53603 -10.4377
ltibia 68.4683
lfoot -12.2822 7.58714
ltoes -15.0976
1449
root 9.97291 15.5334 -30.1911 179.173 -9.96956 182.688
lowerback 6.29701 -2.04684 5.17558
upperback -2.69877 -2.36561 5.49635
thorax -6.34087 -1.42324 3.16336
lowerneck -9.0705 0.602199 4.11073
upperneck 8.46743 0.863858 -6.78913
head 4.0583 0.148918 -2.70536
rclavicle 1.90336e-014 2.8625e-014
rhumerus -37.0378 2.21546 -71.8262
rradius 40.2954
rwrist 10.4307
rhand -5.56261 -53.6875
rfingers 7.12502
rthumb -159.747 -622.652
lclavicle 1.90336e-014 2.8625e-014
lhumerus -39.1114 -1.30361 86.9818
lradius 69.5482
lwrist -3.14049
lhand -4.13356 -32.9749
lfingers 7.12502
lthumb 21.6257 -4.16253
rfemur -0.519003 12.9616 30.9888
rtibia 17.2703
rfoot -15.5169 -34.2766
rtoes 22.7366
lfemur -18.3089 7.98187 -10.3291
ltibia 68.6816
lfoot -13.442 8.08721
ltoes -14.3288
1450
root 9.98776 15.5265 -30.2231 179.126 -9.99114 182.449
lowerback 6.55726 -1.99649 5.02119
upperback -2.63207 -2.28312 5.43472
thorax -6.41675 -1.37176 3.18441
lowerneck -9.52199 0.358975 4.61141
upperneck 8.60568 0.539491 -7.72113
head 4.16074 -0.0628909 -3.10076
rclavicle 1.93318e-014 1.11319e-014
rhumerus -37.0167 2.07879 -71.7366
rradius 40.5083
rwrist 9.70884
rhand -5.65243 -54.1112
rfingers 7.12502
rthumb -159.834 -623.084
lclavicle 1.93318e-014 1.11319e-014
lhumerus -38.8508 -1.66651 87.0454
lradius 70.3989
lwrist -2.85026
lhand -4.20368 -33.0196
lfingers 7.12502
lthumb 21.5584 -4.19947
rfemur -0.283271 12.9021 30.877
rtibia 17.2567
rfoot -15.5826 -34.3258
rtoes 22.0629
lfemur -19.0633 8.2549 -10.9107
ltibia 68.6433
lfoot -14.2466 8.54403
ltoes -11.1287
1451
root 10.001 15.5255 -30.2602 179.204 -9.85069 182.47
lowerback 6.71888 -1.87773 5.14035
upperback -2.65936 -2.09974 5.44387
thorax -6.54578 -1.28852 3.1157
lowerneck -9.83651 0.478616 3.98522
upperneck 8.90876 0.735389 -7.08598
head 4.31403 0.0419836 -2.79132
rclavicle -4.91992e-015 -6.36111e-015
rhumerus -37.2191 1.8365 -71.5867
rradius 40.9012
rwrist 9.2696
rhand -5.62454 -54.452
rfingers 7.12502
rthumb -159.807 -623.422
lclavicle -4.91992e-015 -6.36111e-015
lhumerus -38.7013 -2.13718 87.1132
lradius 71.2188
lwrist -2.40505
lhand -4.09768 -33.0507
lfingers 7.12502
lthumb 21.6602 -4.24232
rfemur -0.289521 13.0286 30.9995
rtibia 17.3997
rfoot -15.7839 -34.3956
rtoes 22.0285
lfemur -19.9045 8.56075 -11.1646
ltibia 68.6308
lfoot -15.6963 8.15773
ltoes -3.84213
1452
root 10.0104 15.5166 -30.3065 179.374 -10.0102 182.698
lowerback 6.51521 -1.91602 5.42917
upperback -2.7717 -2.14728 5.49535
thorax -6.55718 -1.33007 3.01141
lowerneck -9.65918 0.546113 4.11636
upperneck 8.78775 0.804734 -7.01898
head 4.25157 0.0911313 -2.78575
rclavicle -2.22142e-014 4.29375e-014
rhumerus -37.6332 1.35606 -71.4607
rradius 41.3938
rwrist 9.36766
rhand -5.82594 -54.3116
rfingers 7.12502
rthumb -160 -623.302
lclavicle -2.22142e-014 4.29375e-014
lhumerus -38.6905 -2.38161 87.0276
lradius 71.8228
lwrist -1.93408
lhand -4.18208 -33.2444
lfingers 7.12502
lthumb 21.5791 -4.42663
rfemur -0.42407 13.0558 31.3131
rtibia 17.6485
rfoot -16.2276 -34.6234
rtoes 22.2515
lfemur -21.0111 8.79754 -11.3641
ltibia 68.3533
lfoot -16.2925 9.0079
ltoes -9.26843
1453
root 10.0218 15.503 -30.32 179.423 -9.9559 182.547
lowerback 6.62055 -1.91512 5.16834
upperback -2.61425 -2.16486 5.53618
thorax -6.43792 -1.32335 3.19884
lowerneck -9.57844 0.609131 4.27464
upperneck 8.42652 0.877059 -7.24555
head 4.13402 0.125028 -2.87432
rclavicle -2.26118e-014 1.03368e-013
rhumerus -37.4427 0.726741 -71.2625
rradius 41.6954
rwrist 9.67514
rhand -6.09213 -53.7472
rfingers 7.12502
rthumb -160.256 -622.764
lclavicle -2.26118e-014 1.03368e-013
lhumerus -38.1835 -2.36082 86.9458
lradius 72.329
lwrist -1.51057
lhand -4.09573 -33.1493
lfingers 7.12502
lthumb 21.662 -4.34108
rfemur -0.506528 13.4142 31.2927
rtibia 17.974
rfoot -16.7423 -34.9436
rtoes 22.8668
lfemur -21.6366 9.10356 -11.8873
ltibia 68.1302
lfoot -17.8951 8.48115
ltoes -3.04631
1454
root 10.0268 15.5047 -30.3579 179.605 -9.97838 182.434
lowerback 6.56789 -1.87554 5.18846
upperback -2.65588 -2.11088 5.50864
thorax -6.4545 -1.29765 3.15106
lowerneck -9.45823 0.564552 4.08179
upperneck 8.25652 0.829126 -7.14979
head 4.05847 0.104879 -2.8141
rclavicle 1.72446e-014 9.54166e-015
rhumerus -37.6213 0.469301 -71.1525
rradius 41.897
rwrist 9.50394
rhand -6.22347 -53.4029
rfingers 7.12502
rthumb -160.382 -622.433
lclavicle 1.72446e-014 9.54166e-015
lhumerus -38.1051 -2.62699 86.9581
lradius 73.0073
lwrist -1.01464
lhand -3.82849 -32.554
lfingers 7.12502
lthumb 21.9187 -3.77558
rfemur -0.600543 13.3356 31.2482
rtibia 18.2801
rfoot -17.4876 -34.9464
rtoes 23.6291
lfemur -22.4985 9.22328 -12.3913
ltibia 67.6106
lfoot -18.9274 8.59645
ltoes -4.18504
1455
root 10.0342 15.499 -30.3926 179.723 -10.05 182.222
lowerback 6.29148 -1.8725 4.94475
upperback -2.45094 -2.15925 5.50719
thorax -6.06753 -1.30546 3.26478
lowerneck -9.713 0.464454 4.05359
upperneck 8.09853 0.694819 -7.25828
head 4.04536 0.0293504 -2.85108
rclavicle 1.56046e-014 -7.79236e-014
rhumerus -37.4156 0.504518 -71.1815
rradius 42.0678
rwrist 9.05072
rhand -6.27629 -53.4687
rfingers 7.12502
rthumb -160.433 -622.504
lclavicle 1.56046e-014 -7.79236e-014
lhumerus -37.7114 -2.74452 86.9328
lradius 73.5461
lwrist -0.607435
lhand -3.82539 -32.1136
lfingers 7.12502
lthumb 21.9216 -3.33554
rfemur -0.667384 13.3299 31.1334
rtibia 18.6064
rfoot -18.1611 -35.0695
rtoes 24.4108
lfemur -23.3083 9.25192 -12.9818
ltibia 67.0313
lfoot -19.6738 8.95058
ltoes -5.90039
1456
root 10.0345 15.4867 -30.4259 179.778 -10.0065 182.492
lowerback 6.58393 -1.84697 5.40677
upperback -2.5873 -2.06025 5.52195
thorax -6.39911 -1.28266 3.03501
lowerneck -9.70126 0.500739 4.16311
upperneck 8.11874 0.738142 -7.35234
head 4.05281 0.048419 -2.89573
rclavicle 3.03147e-015 -4.6118e-014
rhumerus -37.7877 0.541058 -71.2699
rradius 42.3025
rwrist 8.80063
rhand -6.25513 -53.5731
rfingers 7.12502
rthumb -160.413 -622.606
lclavicle 3.03147e-015 -4.6118e-014
lhumerus -37.9137 -3.04848 86.8689
lradius 74.0314
lwrist -0.27977
lhand -3.96039 -32.0353
lfingers 7.12502
lthumb 21.792 -3.24215
rfemur -0.646765 13.524 31.4784
rtibia 18.665
rfoot -18.2502 -35.262
rtoes 23.9341
lfemur -24.0241 9.3764 -13.0236
ltibia 66.4282
lfoot -20.5345 8.82562
ltoes -2.7746
1457
root 10.0465 15.4776 -30.4544 179.751 -9.86859 182.637
lowerback 6.98555 -1.78595 5.54423
upperback -2.70961 -1.92324 5.5295
thorax -6.76707 -1.22597 2.97726
lowerneck -9.55053 0.513527 4.26497
upperneck 8.20461 0.760798 -7.52622
head 4.05629 0.0522722 -2.96542
rclavicle 1.88845e-015 1.11319e-014
rhumerus -38.2682 0.57742 -71.3733
rradius 42.5479
rwrist 8.66082
rhand -6.08451 -53.6933
rfingers 7.12502
rthumb -160.249 -622.71
lclavicle 1.88845e-015 1.11319e-014
lhumerus -38.2169 -3.38167 86.8069
lradius 74.4665
lwrist -0.0602318
lhand -4.03302 -31.9592
lfingers 7.12502
lthumb 21.7223 -3.15799
rfemur -0.533611 14.2722 31.8204
rtibia 18.6788
rfoot -18.1399 -35.864
rtoes 23.1539
lfemur -24.6887 9.49624 -13.1008
ltibia 65.7092
lfoot -21.3188 8.59854
ltoes 0.765431
1458
root 10.0481 15.475 -30.4828 179.938 -9.88717 182.721
lowerback 6.66226 -1.79674 5.64355
upperback -2.55042 -1.97688 5.60388
thorax -6.41147 -1.25548 2.98291
lowerneck -8.88178 0.609691 4.62432
upperneck 7.17133 0.83598 -7.73028
head 3.63919 0.118039 -3.07253
rclavicle -1.30701e-014 1.09729e-013
rhumerus -38.1571 0.671769 -71.4414
rradius 42.7372
rwrist 8.65993
rhand -5.83379 -53.8865
rfingers 7.12502
rthumb -160.008 -622.878
lclavicle -1.30701e-014 1.09729e-013
lhumerus -37.9963 -3.40216 86.7606
lradius 74.7658
lwrist 0.0141866
lhand -4.12816 -31.8721
lfingers 7.12502
lthumb 21.6309 -3.06035
rfemur -0.609141 14.5523 31.955
rtibia 18.6751
rfoot -18.2601 -36.1976
rtoes 22.7146
lfemur -25.5492 9.46824 -13.3541
ltibia 64.8945
lfoot -21.7511 9.06038
ltoes -0.741453
1459
root 10.0514 15.4767 -30.5234 180.292 -9.93362 182.599
lowerback 6.28162 -1.72755 5.55398
upperback -2.55631 -1.92829 5.62178
thorax -6.19529 -1.22682 3.02644
lowerneck -9.25706 0.627027 3.67939
upperneck 7.31661 0.903466 -6.75783
head 3.74089 0.170829 -2.61475
rclavicle 4.32357e-015 6.36111e-015
rhumerus -38.2312 0.931862 -71.4815
rradius 42.6869
rwrist 8.4436
rhand -5.72879 -53.8772
rfingers 7.12502
rthumb -159.907 -622.858
lclavicle 4.32357e-015 6.36111e-015
lhumerus -38.0092 -3.55211 86.8607
lradius 74.9997
lwrist 0.0757008
lhand -4.25621 -31.8996
lfingers 7.12502
lthumb 21.5079 -3.07374
rfemur -0.757308 14.9333 31.8632
rtibia 18.6281
rfoot -18.7026 -36.5954
rtoes 22.8912
lfemur -26.4233 9.368 -13.8411
ltibia 63.9022
lfoot -22.0727 9.83771
ltoes -4.43809
1460
root 10.0604 15.4719 -30.5399 180.592 -9.87609 182.437
lowerback 6.4221 -1.6199 5.36538
upperback -2.59582 -1.78052 5.63655
thorax -6.31273 -1.14605 3.13831
lowerneck -9.28105 0.548599 3.76859
upperneck 7.23673 0.809981 -7.19728
head 3.71827 0.100223 -2.77027
rclavicle -5.7076e-014 9.70069e-014
rhumerus -38.1463 1.48654 -71.6279
rradius 42.374
rwrist 7.94102
rhand -5.77577 -53.7341
rfingers 7.12502
rthumb -159.952 -622.72
lclavicle -5.7076e-014 9.70069e-014
lhumerus -37.9869 -3.62702 86.956
lradius 75.18
lwrist 0.146195
lhand -4.1822 -31.8332
lfingers 7.12502
lthumb 21.579 -3.01547
rfemur -0.925074 15.5293 31.7594
rtibia 18.5116
rfoot -18.8359 -37.0734
rtoes 23.0539
lfemur -27.3257 9.20339 -14.3191
ltibia 62.8129
lfoot -22.428 10.4705
ltoes -6.69642
